<?xml version="1.0" encoding="utf-8"?>
<!-- Generator: Adobe Illustrator 16.0.0, SVG Export Plug-In . SVG Version: 6.00 Build 0)  -->
<!DOCTYPE svg PUBLIC "-//W3C//DTD SVG 1.1//EN" "http://www.w3.org/Graphics/SVG/1.1/DTD/svg11.dtd">
<svg
	version="1.1"
	x="0px"
	y="0px"
	width="600px"
	height="600px"
	viewBox="24 114 600 600"
	enable-background="new 24 114 600 600"
	xmlns="http://www.w3.org/2000/svg"
	xmlns:xlink="http://www.w3.org/1999/xlink"
	xml:space="preserve">

	<g opacity="0.045">
		<path d="M517.747,220.252C465.995,168.5,397.188,140,324,140c-73.189,0-141.995,28.5-193.746,80.252
			C78.5,272.005,50,340.812,50,414c0,73.188,28.5,141.995,80.254,193.748C182.005,659.499,250.811,688,324,688
			c73.188,0,141.995-28.501,193.747-80.252C569.499,555.995,598,487.188,598,414C598,340.812,569.499,272.005,517.747,220.252z
			 M324,666.168C184.955,666.168,71.833,553.046,71.833,414c0-139.046,113.122-252.167,252.167-252.167
			c139.046,0,252.168,113.122,252.168,252.167C576.168,553.046,463.046,666.168,324,666.168z"/>
	</g>
	<g opacity="0.045">
		<g>
			<path d="M479.829,296.378c-14.897-14.896-39.137-14.896-54.032,0L265.052,457.121l-52.673-52.67
				c-14.896-14.897-39.136-14.897-54.033,0c-14.897,14.896-14.897,39.135,0,54.033l79.69,79.688
				c7.217,7.216,16.812,11.189,27.016,11.189c10.204,0,19.798-3.975,27.017-11.189l187.761-187.761
				C494.725,335.514,494.725,311.274,479.829,296.378z M464.391,334.973l-187.76,187.76c-3.093,3.093-7.205,4.798-11.579,4.798
				c-4.373,0-8.485-1.704-11.578-4.798l-79.689-79.688c-6.385-6.385-6.385-16.773,0-23.157c3.191-3.192,7.385-4.788,11.579-4.788
				c4.192,0,8.387,1.598,11.578,4.789l60.391,60.392c4.266,4.263,11.175,4.263,15.44,0l168.461-168.464
				c6.386-6.385,16.773-6.385,23.159,0C470.775,318.199,470.775,328.587,464.391,334.973z"/>
		</g>
	</g>
	<g opacity="0.045">
		<g>
			<path d="M544.625,459.096c-5.849-1.49-11.785,2.041-13.272,7.884C507.212,561.763,421.946,627.96,324,627.96
				c-6.027,0-10.916,4.887-10.916,10.916c0,6.028,4.889,10.916,10.916,10.916c107.938,0,201.904-72.959,228.51-177.425
				C553.998,466.527,550.468,460.583,544.625,459.096z"/>
		</g>
	</g>
	<g opacity="0.045">
		<path d="M548.877,403.084c-6.027,0-10.916,4.889-10.916,10.917c0,3.121-0.067,6.267-0.201,9.354
			c-0.261,6.023,4.411,11.117,10.434,11.378c0.161,0.006,0.321,0.01,0.479,0.01c5.813,0,10.646-4.583,10.899-10.445
			c0.147-3.399,0.221-6.862,0.221-10.296C559.793,407.973,554.904,403.084,548.877,403.084z"/>
	</g>
</svg>
